GIL06_xslow1_ik
nRows=3
nColumns=375

# SIMM Motion File Header:
name GIL06_xslow1_ik
datacolumns 375
datarows 3
otherdata 1
range 0.77500000 0.79167000
endheader
time	pelvis_tx	pelvis_ty	pelvis_tz	pelvis_tilt	pelvis_list	pelvis_rotation	hip_flexion_r	hip_adduction_r	hip_rotation_r	knee_angle_r	ankle_angle_r	hip_flexion_l	hip_adduction_l	hip_rotation_l	knee_angle_l	ankle_angle_l	lumbar_extension	lumbar_bending	lumbar_rotation	subtalar_angle_r	mtp_angle_r	subtalar_angle_l	mtp_angle_l	asis_r_px	asis_r_py	asis_r_pz	asis_l_px	asis_l_py	asis_l_pz	midasis_px	midasis_py	midasis_pz	psis_r_px	psis_r_py	psis_r_pz	psis_l_px	psis_l_py	psis_l_pz	hip_r_px	hip_r_py	hip_r_pz	hip_l_px	hip_l_py	hip_l_pz	midhip_px	midhip_py	midhip_pz	epicondLat_r_px	epicondLat_r_py	epicondLat_r_pz	epicondMed_r_px	epicondMed_r_py	epicondMed_r_pz	thighwand_r_px	thighwand_r_py	thighwand_r_pz	upperleg1_r_px	upperleg1_r_py	upperleg1_r_pz	upperleg2_r_px	upperleg2_r_py	upperleg2_r_pz	malleolusLat_r_px	malleolusLat_r_py	malleolusLat_r_pz	malleolusMedv_r_px	malleolusMedv_r_py	malleolusMedv_r_pz	shankwand_r_px	shankwand_r_py	shankwand_r_pz	lowerleg1_r_px	lowerleg1_r_py	lowerleg1_r_pz	knee_r_px	knee_r_py	knee_r_pz	ankle_r_px	ankle_r_py	ankle_r_pz	toe_r_px	toe_r_py	toe_r_pz	epicondLat_l_px	epicondLat_l_py	epicondLat_l_pz	epicondMed_l_px	epicondMed_l_py	epicondMed_l_pz	thighwand_l_px	thighwand_l_py	thighwand_l_pz	upperleg1_l_px	upperleg1_l_py	upperleg1_l_pz	upperleg2_l_px	upperleg2_l_py	upperleg2_l_pz	malleolusLat_l_px	malleolusLat_l_py	malleolusLat_l_pz	malleolusMedv_l_px	malleolusMedv_l_py	malleolusMedv_l_pz	shankwand_l_px	shankwand_l_py	shankwand_l_pz	lowerleg1_l_px	lowerleg1_l_py	lowerleg1_l_pz	knee_l_px	knee_l_py	knee_l_pz	ankle_l_px	ankle_l_py	ankle_l_pz	toe_l_px	toe_l_py	toe_l_pz	subclavicle_r_px	subclavicle_r_py	subclavicle_r_pz	subclavicle_l_px	subclavicle_l_py	subclavicle_l_pz	neck_px	neck_py	neck_pz	sternalnotch_px	sternalnotch_py	sternalnotch_pz	xyphoidprocess_px	xyphoidprocess_py	xyphoidprocess_pz	midhip_tx	midhip_ty	midhip_tz	hip_r_tx	hip_r_ty	hip_r_tz	hip_l_tx	hip_l_ty	hip_l_tz	knee_r_tx	knee_r_ty	knee_r_tz	knee_l_tx	knee_l_ty	knee_l_tz	ankle_r_tx	ankle_r_ty	ankle_r_tz	ankle_l_tx	ankle_l_ty	ankle_l_tz	midasis_tx	midasis_ty	midasis_tz	asis_r_tx	asis_r_ty	asis_r_tz	asis_l_tx	asis_l_ty	asis_l_tz	psis_r_tx	psis_r_ty	psis_r_tz	psis_l_tx	psis_l_ty	psis_l_tz	epicondLat_r_tx	epicondLat_r_ty	epicondLat_r_tz	epicondLat_l_tx	epicondLat_l_ty	epicondLat_l_tz	epicondMed_r_tx	epicondMed_r_ty	epicondMed_r_tz	epicondMed_l_tx	epicondMed_l_ty	epicondMed_l_tz	malleolusLat_r_tx	malleolusLat_r_ty	malleolusLat_r_tz	malleolusLat_l_tx	malleolusLat_l_ty	malleolusLat_l_tz	malleolusMedv_r_tx	malleolusMedv_r_ty	malleolusMedv_r_tz	malleolusMedv_l_tx	malleolusMedv_l_ty	malleolusMedv_l_tz	neck_tx	neck_ty	neck_tz	subclavicle_r_tx	subclavicle_r_ty	subclavicle_r_tz	subclavicle_l_tx	subclavicle_l_ty	subclavicle_l_tz	sternalnotch_tx	sternalnotch_ty	sternalnotch_tz	xyphoidprocess_tx	xyphoidprocess_ty	xyphoidprocess_tz	thighwand_r_tx	thighwand_r_ty	thighwand_r_tz	thighwand_l_tx	thighwand_l_ty	thighwand_l_tz	upperleg1_r_tx	upperleg1_r_ty	upperleg1_r_tz	upperleg1_l_tx	upperleg1_l_ty	upperleg1_l_tz	upperleg2_r_tx	upperleg2_r_ty	upperleg2_r_tz	upperleg2_l_tx	upperleg2_l_ty	upperleg2_l_tz	shankwand_r_tx	shankwand_r_ty	shankwand_r_tz	shankwand_l_tx	shankwand_l_ty	shankwand_l_tz	lowerleg1_r_tx	lowerleg1_r_ty	lowerleg1_r_tz	lowerleg1_l_tx	lowerleg1_l_ty	lowerleg1_l_tz	toe_r_tx	toe_r_ty	toe_r_tz	toe_l_tx	toe_l_ty	toe_l_tz	ground_force_vx	ground_force_vy	ground_force_vz	ground_force_px	ground_force_py	ground_force_pz	ground_force_vx	ground_force_vy	ground_force_vz	ground_force_px	ground_force_py	ground_force_pz	ground_torque_x	ground_torque_y	ground_torque_z	ground_torque_x	ground_torque_y	ground_torque_z	ground_marker_px	ground_marker_py	ground_marker_pz	ground_marker_px	ground_marker_py	ground_marker_pz	ground_marker_px	ground_marker_py	ground_marker_pz	ground_marker_px	ground_marker_py	ground_marker_pz	ground_marker_px	ground_marker_py	ground_marker_pz	ground_marker_px	ground_marker_py	ground_marker_pz	ground_marker_px	ground_marker_py	ground_marker_pz	ground_marker_px	ground_marker_py	ground_marker_pz	ground_marker_px	ground_marker_py	ground_marker_pz	ground_marker_px	ground_marker_py	ground_marker_pz	ground_marker_px	ground_marker_py	ground_marker_pz	ground_marker_px	ground_marker_py	ground_marker_pz	ground_marker_px	ground_marker_py	ground_marker_pz	ground_marker_px	ground_marker_py	ground_marker_pz	ground_marker_px	ground_marker_py	ground_marker_pz	ground_marker_px	ground_marker_py	ground_marker_pz	ground_marker_px	ground_marker_py	ground_marker_pz	ground_marker_px	ground_marker_py	ground_marker_pz	ground_marker_px	ground_marker_py	ground_marker_pz	ground_marker_px	ground_marker_py	ground_marker_pz	ground_marker_px	ground_marker_py	ground_marker_pz	ground_marker_px	ground_marker_py	ground_marker_pz	ground_marker_px	ground_marker_py	ground_marker_pz	ground_marker_px	ground_marker_py	ground_marker_pz	ground_marker_px	ground_marker_py	ground_marker_pz	ground_marker_px	ground_marker_py	ground_marker_pz	ground_marker_px	ground_marker_py	ground_marker_pz	ground_marker_px	ground_marker_py	ground_marker_pz	ground_marker_px	ground_marker_py	ground_marker_pz	ground_marker_px	ground_marker_py	ground_marker_pz	ground_marker_px	ground_marker_py	ground_marker_pz	ground_marker_px	ground_marker_py	ground_marker_pz	ground_marker_px	ground_marker_py	ground_marker_pz	ground_marker_px	ground_marker_py	ground_marker_pz	ground_marker_px	ground_marker_py	ground_marker_pz	ground_marker_px	ground_marker_py	ground_marker_pz	ground_marker_px	ground_marker_py	ground_marker_pz
      0.77500000	      0.40745520	      0.83590734	     -0.29187261	     -4.30427192	     -0.02519718	     -0.88267364	     34.67560293	     -0.71641176	      4.20213156	    -33.59318959	     -0.67485706	     -2.08847191	      5.53008896	     -0.82515109	     -0.98502646	      5.01597277	      6.28785635	     -1.53161970	      8.68100814	      0.00000000	      0.00000000	      0.00000000	      0.00000000	      0.46185376	      0.82040799	     -0.17397654	      0.46421370	      0.81925962	     -0.41988317	      0.42086473	      0.83489816	     -0.29166543	      0.23015023	      0.92464300	     -0.26585950	      0.22633630	      0.92303380	     -0.32094816	      0.33374173	      0.77781200	     -0.21268652	      0.33620085	      0.77755617	     -0.37309539	      0.33497129	      0.77768409	     -0.29289096	      0.53094866	      0.44988448	     -0.14510089	      0.50348466	      0.44101601	     -0.28732070	      0.58879899	      0.66275792	     -0.15994865	      0.54322828	      0.66164580	     -0.17744708	      0.55624128	      0.58500837	     -0.18159214	      0.49220772	      0.08706355	     -0.13798310	      0.50595284	      0.08961780	     -0.21343922	      0.59094707	      0.22868437	     -0.16807680	      0.54528426	      0.23624817	     -0.17978243	      0.52169576	      0.45926800	     -0.20475769	      0.50107100	      0.09198556	     -0.18571654	      0.60870340	      0.06171901	     -0.16878021	      0.28772856	      0.39937249	     -0.40372993	      0.29050318	      0.39946562	     -0.25514121	      0.48867564	      0.55945000	     -0.37189637	      0.44327256	      0.57989403	     -0.37826762	      0.41779077	      0.51129160	     -0.36812655	      0.21882522	      0.03894097	     -0.34268623	      0.24156834	      0.06004562	     -0.26899511	      0.21591628	      0.14502509	     -0.41764597	      0.22386286	      0.16027646	     -0.37187921	      0.29099702	      0.41554525	     -0.33782938	      0.24334581	      0.05200991	     -0.30239268	      0.33844708	      0.02322172	     -0.32409292	      0.36613123	      1.27881965	     -0.25939319	      0.36350151	      1.28052929	     -0.34126363	      0.22418310	      1.31922273	     -0.29280806	      0.34906400	      1.27119371	     -0.31218256	      0.41480604	      1.20964181	     -0.31438139	      0.32899400	      0.77083700	     -0.28909600	      0.30905600	      0.77513500	     -0.21024200	      0.31138100	      0.77281000	     -0.36583600	      0.51549200	      0.43413000	     -0.19270100	      0.27740700	      0.42255600	     -0.32825000	      0.49937800	      0.08200800	     -0.20295700	      0.23673500	      0.05842600	     -0.29923400	      0.43741900	      0.84713400	     -0.28723200	      0.43554200	      0.84901100	     -0.16159600	      0.43929600	      0.84525700	     -0.41286700	      0.19314800	      0.91612000	     -0.25546300	      0.19022800	      0.91666300	     -0.31010000	      0.51826200	      0.43947200	     -0.12145400	      0.27681800	      0.41498300	     -0.39934500	      0.52031800	      0.42529500	     -0.25991300	      0.26677300	      0.42054100	     -0.24368700	      0.48842300	      0.08143400	     -0.16605300	      0.21977700	      0.05747800	     -0.33489700	      0.50626600	      0.09343400	     -0.23930600	      0.23422600	      0.07855200	     -0.25922800	      0.23876200	      1.34702200	     -0.29574900	      0.35994200	      1.26827000	     -0.25729700	      0.35836500	      1.26830700	     -0.34003300	      0.34174700	      1.26471400	     -0.31053800	      0.38594500	      1.18612100	     -0.31018100	      0.57550300	      0.65105800	     -0.12869900	      0.47499200	      0.57422700	     -0.35017900	      0.53089100	      0.64798800	     -0.14741800	      0.43076700	      0.59465200	     -0.35998500	      0.55260000	      0.57324100	     -0.15146800	      0.40386800	      0.52801300	     -0.35023600	      0.58797600	      0.22060600	     -0.16736300	      0.22531600	      0.15797800	     -0.41102900	      0.54461200	      0.23009400	     -0.18003600	      0.22823300	      0.17371400	     -0.36566400	      0.60275700	      0.06478100	     -0.18801100	      0.33686900	      0.04671800	     -0.31414500	      0.00000000	      0.00000000	      0.00000000	      0.64511670	      0.00000000	     -0.21293446	     12.08786255	    765.78060437	     17.55572146	      0.30342291	      0.00000000	     -0.31158514	      0.00000000	      0.00000000	      0.00000000	      0.00000000	     -2.81199829	      0.00000000	      0.32899368	      0.77083689	     -0.28909606	      0.30905601	      0.77513492	     -0.21024208	      0.31138098	      0.77281010	     -0.36583644	      0.51549178	      0.43412986	     -0.19270054	      0.27740738	      0.42255569	     -0.32824966	      0.49937838	      0.08200750	     -0.20295657	      0.23673490	      0.05842558	     -0.29923442	      0.43741888	      0.84713399	     -0.28723174	      0.43554157	      0.84901118	     -0.16159631	      0.43929619	      0.84525675	     -0.41286716	      0.19314823	      0.91611987	     -0.25546345	      0.19022810	      0.91666341	     -0.31009984	      0.51826239	      0.43947205	     -0.12145423	      0.27681819	      0.41498339	     -0.39934510	      0.52031755	      0.42529473	     -0.25991267	      0.26677334	      0.42054108	     -0.24368711	      0.48842269	      0.08143397	     -0.16605271	      0.21977742	      0.05747798	     -0.33489662	      0.50626642	      0.09343378	     -0.23930608	      0.23422575	      0.07855228	     -0.25922841	      0.23876226	      1.34702158	     -0.29574865	      0.35994154	      1.26826966	     -0.25729662	      0.35836539	      1.26830685	     -0.34003267	      0.34174699	      1.26471364	     -0.31053823	      0.38594481	      1.18612099	     -0.31018099	      0.57550257	      0.65105772	     -0.12869863	      0.47499207	      0.57422662	     -0.35017940	      0.53089064	      0.64798808	     -0.14741781	      0.43076739	      0.59465170	     -0.35998538	      0.55259991	      0.57324088	     -0.15146844	      0.40386766	      0.52801317	     -0.35023600	      0.58797568	      0.22060552	     -0.16736336	      0.22531624	      0.15797764	     -0.41102916	      0.54461187	      0.23009364	     -0.18003580	      0.22823285	      0.17371409	     -0.36566368	      0.60275698	      0.06478091	     -0.18801075	      0.33686924	      0.04671779	     -0.31414467
      0.78333000	      0.41098270	      0.83528791	     -0.29142484	     -4.38600818	     -0.05844509	     -0.67188477	     34.55611031	     -0.63280083	      4.07860217	    -31.21018582	     -1.18185079	     -2.21829729	      5.51393107	     -0.73665624	     -1.09318937	      5.23206623	      6.33803871	     -1.59337860	      8.56853779	      0.00000000	      0.00000000	      0.00000000	      0.00000000	      0.46579639	      0.81974584	     -0.17372683	      0.46724173	      0.81852100	     -0.41964017	      0.42439146	      0.83425962	     -0.29126713	      0.23390249	      0.92428471	     -0.26478057	      0.22988177	      0.92266459	     -0.31985421	      0.33748081	      0.77732157	     -0.21194809	      0.33934401	      0.77701454	     -0.37236490	      0.33841241	      0.77716805	     -0.29215649	      0.53372613	      0.44857524	     -0.14555170	      0.50586494	      0.44009737	     -0.28771807	      0.59227380	      0.66127807	     -0.16010829	      0.54665454	      0.66035969	     -0.17749108	      0.55939170	      0.58368657	     -0.18182842	      0.50888925	      0.08497915	     -0.13971560	      0.52217530	      0.08833931	     -0.21522235	      0.60202988	      0.23036684	     -0.16969540	      0.55605837	      0.23623191	     -0.18116474	      0.52388920	      0.45828543	     -0.20515232	      0.51733627	      0.09041495	     -0.18746877	      0.62590387	      0.06324052	     -0.17127426	      0.28946677	      0.39899999	     -0.40283130	      0.29256110	      0.39910727	     -0.25424890	      0.49104754	      0.55836982	     -0.37145668	      0.44570358	      0.57897353	     -0.37773381	      0.42000082	      0.51046343	     -0.36752640	      0.21872218	      0.03895509	     -0.34158274	      0.24172443	      0.05994946	     -0.26794056	      0.21624078	      0.14503988	     -0.41655691	      0.22436001	      0.16025622	     -0.37080879	      0.29294389	      0.41516345	     -0.33693998	      0.24339255	      0.05189819	     -0.30134002	      0.33837789	      0.02294544	     -0.32332717	      0.37001596	      1.27834859	     -0.25919252	      0.36724661	      1.27995136	     -0.34106052	      0.22803128	      1.31878002	     -0.29241723	      0.35285429	      1.27066161	     -0.31194240	      0.41856112	      1.20907325	     -0.31417260	      0.33240000	      0.77035300	     -0.28880800	      0.31276700	      0.77455500	     -0.20988800	      0.31451100	      0.77242500	     -0.36549200	      0.51790400	      0.43333400	     -0.19470200	      0.27944200	      0.42243500	     -0.32808000	      0.51552200	      0.08022800	     -0.20233100	      0.23689100	      0.05847300	     -0.29914600	      0.44093400	      0.84648900	     -0.28726200	      0.43952600	      0.84820800	     -0.16161900	      0.44234300	      0.84476900	     -0.41290500	      0.19683200	      0.91570900	     -0.25451900	      0.19384800	      0.91637700	     -0.30925000	      0.52088400	      0.43829700	     -0.12343700	      0.27867000	      0.41491200	     -0.39917900	      0.52101700	      0.42406000	     -0.26197500	      0.26543300	      0.42549600	     -0.24139900	      0.50435900	      0.07950700	     -0.16549200	      0.21989900	      0.05762500	     -0.33479400	      0.52255300	      0.09159200	     -0.23865700	      0.23441300	      0.07857800	     -0.25909200	      0.24241100	      1.34626200	     -0.29536000	      0.36402600	      1.26791100	     -0.25772200	      0.36218800	      1.26755000	     -0.33963500	      0.34554000	      1.26410300	     -0.31033400	      0.39006500	      1.18557500	     -0.30989100	      0.57842700	      0.64872900	     -0.13006000	      0.47751500	      0.57342700	     -0.35034400	      0.53401400	      0.64609400	     -0.14853300	      0.43452600	      0.59447500	     -0.36010300	      0.55498900	      0.57126700	     -0.15297600	      0.40490800	      0.52682400	     -0.34924200	      0.59870000	      0.22237300	     -0.16717500	      0.22588600	      0.15811600	     -0.41094800	      0.55553200	      0.23004700	     -0.18016700	      0.22878400	      0.17373800	     -0.36549100	      0.61933700	      0.06621900	     -0.18670900	      0.33690100	      0.04664700	     -0.31372600	      0.00000000	      0.00000000	      0.00000000	      0.64620398	      0.00000000	     -0.21252695	     13.32888920	    769.42090379	     17.64642479	      0.30498553	      0.00000000	     -0.31133438	      0.00000000	      0.00000000	      0.00000000	      0.00000000	     -2.94635693	      0.00000000	      0.33240020	      0.77035296	     -0.28880841	      0.31276652	      0.77455467	     -0.20988761	      0.31451082	      0.77242494	     -0.36549237	      0.51790369	      0.43333390	     -0.19470176	      0.27944195	      0.42243454	     -0.32808042	      0.51552165	      0.08022762	     -0.20233136	      0.23689120	      0.05847270	     -0.29914552	      0.44093433	      0.84648860	     -0.28726211	      0.43952587	      0.84820819	     -0.16161875	      0.44234279	      0.84476894	     -0.41290548	      0.19683202	      0.91570938	     -0.25451946	      0.19384849	      0.91637719	     -0.30925038	      0.52088434	      0.43829745	     -0.12343656	      0.27867043	      0.41491181	     -0.39917937	      0.52101713	      0.42406031	     -0.26197487	      0.26543254	      0.42549622	     -0.24139878	      0.50435919	      0.07950693	     -0.16549213	      0.21989875	      0.05762526	     -0.33479360	      0.52255303	      0.09159225	     -0.23865749	      0.23441321	      0.07857758	     -0.25909227	      0.24241057	      1.34626174	     -0.29536015	      0.36402601	      1.26791108	     -0.25772205	      0.36218771	      1.26754963	     -0.33963478	      0.34553960	      1.26410258	     -0.31033364	      0.39006460	      1.18557549	     -0.30989075	      0.57842696	      0.64872873	     -0.13006027	      0.47751459	      0.57342720	     -0.35034409	      0.53401417	      0.64609396	     -0.14853340	      0.43452585	      0.59447521	     -0.36010280	      0.55498856	      0.57126689	     -0.15297565	      0.40490788	      0.52682418	     -0.34924155	      0.59870017	      0.22237267	     -0.16717510	      0.22588556	      0.15811603	     -0.41094798	      0.55553150	      0.23004746	     -0.18016697	      0.22878407	      0.17373794	     -0.36549053	      0.61933666	      0.06621911	     -0.18670861	      0.33690056	      0.04664725	     -0.31372625
      0.79167000	      0.41458507	      0.83466209	     -0.29095168	     -4.46667716	     -0.07537515	     -0.46883157	     34.39383174	     -0.56678527	      3.99762162	    -28.80900483	     -1.70272046	     -2.35503232	      5.51473283	     -0.65106558	     -1.20057352	      5.46680896	      6.41875115	     -1.71248780	      8.77566860	      0.00000000	      0.00000000	      0.00000000	      0.00000000	      0.46979496	      0.81904482	     -0.17344897	      0.47036405	      0.81781338	     -0.41936587	      0.42799283	      0.83361487	     -0.29084163	      0.23772657	      0.92390936	     -0.26367995	      0.23350774	      0.92229390	     -0.31873891	      0.34128449	      0.77680108	     -0.21121268	      0.34257678	      0.77648844	     -0.37163509	      0.34193064	      0.77664476	     -0.29142388	      0.53633454	      0.44711812	     -0.14594799	      0.50802561	      0.43900180	     -0.28804699	      0.59573554	      0.65959734	     -0.16031200	      0.55006258	      0.65890083	     -0.17756359	      0.56246390	      0.58218234	     -0.18206871	      0.52525963	      0.08328095	     -0.14137098	      0.53803920	      0.08740593	     -0.21692722	      0.61272100	      0.23217393	     -0.17125302	      0.56650577	      0.23634656	     -0.18248093	      0.52589494	      0.45711679	     -0.20548728	      0.53326185	      0.08919976	     -0.18914333	      0.64265831	      0.06507733	     -0.17371098	      0.29125556	      0.39865311	     -0.40192583	      0.29465886	      0.39877626	     -0.25335020	      0.49348200	      0.55729102	     -0.37100021	      0.44820068	      0.57805913	     -0.37718709	      0.42226903	      0.50964527	     -0.36691329	      0.21863272	      0.03901362	     -0.34046459	      0.24189018	      0.05989593	     -0.26687072	      0.21659459	      0.14509499	     -0.41545695	      0.22488447	      0.16027574	     -0.36972762	      0.29493829	      0.41480753	     -0.33604430	      0.24345046	      0.05182868	     -0.30027153	      0.33832475	      0.02273254	     -0.32254700	      0.37401742	      1.27791710	     -0.25955119	      0.37066713	      1.27933736	     -0.34140085	      0.23180562	      1.31829467	     -0.29185738	      0.35648069	      1.27011476	     -0.31216060	      0.42216214	      1.20851211	     -0.31471955	      0.33588200	      0.76982800	     -0.28854300	      0.31654300	      0.77391300	     -0.20954700	      0.31772700	      0.77202300	     -0.36516000	      0.52005300	      0.43241600	     -0.19668700	      0.28151700	      0.42230200	     -0.32791000	      0.53133200	      0.07885800	     -0.20157500	      0.23704400	      0.05850800	     -0.29905900	      0.44452500	      0.84580400	     -0.28726900	      0.44356800	      0.84733000	     -0.16160600	      0.44548100	      0.84427800	     -0.41293200	      0.20057600	      0.91525300	     -0.25354600	      0.19751300	      0.91606900	     -0.30835900	      0.52327600	      0.43702000	     -0.12540800	      0.28056500	      0.41482700	     -0.39901100	      0.52062200	      0.42216800	     -0.26284000	      0.26486400	      0.43051200	     -0.23968200	      0.51996500	      0.07798700	     -0.16480100	      0.22001900	      0.05776300	     -0.33469300	      0.53985200	      0.08985800	     -0.23768500	      0.23459900	      0.07854900	     -0.25894400	      0.24597400	      1.34567600	     -0.29509200	      0.36789700	      1.26743700	     -0.25800100	      0.36555100	      1.26719200	     -0.34000800	      0.34943500	      1.26351800	     -0.31007800	      0.39371100	      1.18520900	     -0.31050400	      0.58129600	      0.64616000	     -0.13152600	      0.48008600	      0.57261500	     -0.35050900	      0.53694600	      0.64415500	     -0.14974500	      0.43894100	      0.59458700	     -0.36067600	      0.55692400	      0.56906100	     -0.15416600	      0.40659200	      0.52549700	     -0.34838200	      0.60902100	      0.22429600	     -0.16690900	      0.22646500	      0.15824500	     -0.41088700	      0.56756300	      0.23041400	     -0.18058300	      0.22932200	      0.17360500	     -0.36532300	      0.63546000	      0.06802600	     -0.18517700	      0.33693100	      0.04658300	     -0.31329900	      0.00000000	      0.00000000	      0.00000000	      0.64727899	      0.00000000	     -0.21210941	     14.70055578	    774.00916344	     17.89447657	      0.30652356	      0.00000000	     -0.31111411	      0.00000000	      0.00000000	      0.00000000	      0.00000000	     -3.05485254	      0.00000000	      0.33588195	      0.76982784	     -0.28854257	      0.31654304	      0.77391303	     -0.20954731	      0.31772736	      0.77202308	     -0.36516047	      0.52005333	      0.43241566	     -0.19668655	      0.28151730	      0.42230201	     -0.32790959	      0.53133154	      0.07885786	     -0.20157452	      0.23704441	      0.05850812	     -0.29905853	      0.44452479	      0.84580398	     -0.28726900	      0.44356838	      0.84733021	     -0.16160637	      0.44548121	      0.84427774	     -0.41293159	      0.20057580	      0.91525316	     -0.25354621	      0.19751348	      0.91606921	     -0.30835938	      0.52327591	      0.43702045	     -0.12540780	      0.28056532	      0.41482708	     -0.39901137	      0.52062172	      0.42216760	     -0.26284021	      0.26486424	      0.43051177	     -0.23968162	      0.51996529	      0.07798690	     -0.16480090	      0.22001897	      0.05776339	     -0.33469319	      0.53985190	      0.08985803	     -0.23768519	      0.23459868	      0.07854947	     -0.25894412	      0.24597394	      1.34567595	     -0.29509208	      0.36789712	      1.26743650	     -0.25800073	      0.36555052	      1.26719224	     -0.34000811	      0.34943512	      1.26351833	     -0.31007844	      0.39371118	      1.18520892	     -0.31050363	      0.58129561	      0.64615995	     -0.13152565	      0.48008558	      0.57261503	     -0.35050884	      0.53694642	      0.64415526	     -0.14974536	      0.43894064	      0.59458655	     -0.36067650	      0.55692363	      0.56906116	     -0.15416636	      0.40659183	      0.52549666	     -0.34838185	      0.60902053	      0.22429572	     -0.16690871	      0.22646455	      0.15824492	     -0.41088718	      0.56756300	      0.23041409	     -0.18058328	      0.22932154	      0.17360495	     -0.36532348	      0.63545966	      0.06802563	     -0.18517663	      0.33693054	      0.04658326	     -0.31329852
